<svg version="1.0" xmlns="http://www.w3.org/2000/svg"
 width="64.000000pt" height="64.000000pt" viewBox="0 0 64.000000 64.000000"
 preserveAspectRatio="xMidYMid meet">

<g transform="translate(0.000000,64.000000) scale(0.100000,-0.100000)"
fill="#ffffff" stroke="none">
<path d="M285 511 c-3 -10 -3 -25 0 -32 3 -8 -16 -41 -43 -74 -60 -75 -91 -82
-146 -35 -28 25 -34 35 -26 50 12 23 -10 53 -35 49 -30 -6 -42 -35 -23 -56 8
-10 21 -40 27 -68 7 -27 16 -67 22 -87 l10 -38 243 0 c183 0 246 3 253 12 6 7
18 47 28 88 10 41 25 83 33 93 19 21 7 50 -23 56 -25 4 -47 -26 -35 -49 8 -15
2 -25 -26 -50 -55 -47 -86 -40 -146 35 -30 36 -46 65 -43 76 9 28 -5 49 -35
49 -19 0 -31 -6 -35 -19z"/>
<path d="M70 146 c0 -22 6 -36 16 -40 20 -8 448 -8 468 0 10 4 16 18 16 40 l0
34 -250 0 -250 0 0 -34z"/>
</g>
</svg>
