<svg version="1.0" xmlns="http://www.w3.org/2000/svg"
     width="64.000000pt" height="64.000000pt" viewBox="0 0 64.000000 64.000000"
     preserveAspectRatio="xMidYMid meet">

    <g transform="translate(0.000000,64.000000) scale(0.100000,-0.100000)"
       fill="#ffffff" stroke="none">
        <path d="M169 614 c-67 -20 -133 -94 -149 -166 -20 -87 -1 -149 64 -214 65
-65 127 -84 215 -64 46 10 65 21 107 64 65 65 84 127 64 214 -17 75 -81 146
-153 167 -61 18 -88 18 -148 -1z m176 -59 c120 -70 118 -251 -4 -323 -166 -97
-355 89 -261 256 54 96 168 125 265 67z"/>
        <path d="M193 521 c-3 -9 -15 -24 -27 -33 -20 -17 -18 -18 72 -18 55 0 92 4
92 10 0 6 -7 10 -15 10 -9 0 -20 11 -26 24 -9 19 -19 23 -51 23 -28 0 -41 -5
-45 -16z"/>
        <path d="M158 378 c-9 -7 -19 -27 -22 -43 -8 -36 20 -69 67 -81 l29 -7 -16 32
c-26 50 -39 85 -37 99 1 6 0 12 -2 12 -2 0 -10 -6 -19 -12z"/>
        <path d="M200 381 c0 -6 5 -13 10 -16 6 -4 8 -10 5 -15 -3 -5 2 -25 13 -45
l18 -36 17 36 c10 20 15 40 12 45 -3 5 -1 11 5 15 12 8 13 25 1 25 -5 0 -14
-14 -22 -32 l-13 -31 -15 31 c-14 31 -31 43 -31 23z"/>
        <path d="M313 377 c3 -9 -8 -42 -24 -73 l-31 -57 29 7 c15 4 39 18 52 30 19
19 22 30 16 55 -4 17 -16 36 -27 42 -18 9 -20 9 -15 -4z"/>
        <path d="M426 212 c-3 -5 3 -17 14 -27 11 -10 20 -28 20 -39 0 -13 23 -44 55
-76 45 -45 58 -53 72 -44 42 27 40 41 -17 99 -30 30 -63 55 -74 55 -11 0 -30
9 -42 21 -12 11 -25 16 -28 11z"/>
    </g>
</svg>
