<svg version="1.0" xmlns="http://www.w3.org/2000/svg"
 width="64.000000pt" height="64.000000pt" viewBox="0 0 64.000000 64.000000"
 preserveAspectRatio="xMidYMid meet">

<g transform="translate(0.000000,64.000000) scale(0.100000,-0.100000)"
fill="#ffffff" stroke="none">
<path d="M434 621 c-18 -11 -39 -30 -48 -42 -20 -30 -21 -91 0 -130 8 -17 14
-32 12 -33 -29 -24 -43 -22 -73 9 -101 108 -267 -15 -199 -147 15 -29 15 -32
-1 -40 -59 -34 -125 -121 -125 -166 0 -11 9 -31 21 -46 20 -26 22 -26 154 -26
135 0 159 6 135 35 -10 12 -39 15 -132 15 -131 0 -141 5 -115 57 47 89 158
127 252 84 63 -28 92 -2 39 36 l-26 19 24 49 c16 35 33 55 58 67 42 22 125 23
160 3 38 -21 70 -19 70 5 0 11 -3 20 -7 20 -5 0 -16 7 -26 14 -17 13 -17 16
-3 45 33 63 8 144 -53 176 -40 20 -79 19 -117 -4z m111 -56 c24 -24 31 -57 19
-90 -10 -24 -60 -46 -89 -39 -57 14 -75 97 -29 133 35 28 69 26 99 -4z m-252
-177 c41 -49 7 -122 -58 -122 -61 0 -94 60 -64 115 22 42 89 46 122 7z"/>
<path d="M505 228 c-2 -7 -6 -29 -7 -48 -3 -33 -5 -35 -43 -38 -22 -2 -44 -7
-49 -12 -17 -17 15 -40 55 -40 l39 0 0 -45 c0 -37 3 -45 19 -45 21 0 31 19 31
61 0 26 3 29 33 29 41 0 62 13 54 34 -4 11 -19 16 -47 16 -40 0 -40 0 -40 38
0 48 -33 85 -45 50z"/>
</g>
</svg>
