<svg version="1.0" xmlns="http://www.w3.org/2000/svg"
     width="64.000000pt" height="64.000000pt" viewBox="0 0 64.000000 64.000000"
     preserveAspectRatio="xMidYMid meet">

    <g transform="translate(0.000000,64.000000) scale(0.100000,-0.100000)"
       fill="#ffffff" stroke="none">
        <path d="M255 626 c-17 -7 -45 -29 -62 -49 -54 -61 -56 -148 -6 -207 14 -17
24 -32 22 -34 -2 -1 -25 -14 -50 -29 -57 -33 -105 -85 -135 -151 -31 -66 -30
-100 1 -132 24 -24 26 -24 177 -22 145 3 153 4 153 23 0 19 -8 20 -150 25
l-150 5 2 33 c3 77 100 177 196 203 57 15 135 6 194 -24 51 -26 81 -23 70 7
-6 14 -56 50 -82 59 -5 2 2 18 17 36 51 60 49 146 -5 208 -52 60 -125 78 -192
49z m149 -75 c26 -27 31 -39 31 -81 0 -43 -5 -54 -33 -82 -28 -28 -39 -33 -82
-33 -43 0 -54 5 -82 33 -28 28 -33 39 -33 81 0 52 25 92 70 112 37 16 96 3
129 -30z"/>
        <path d="M433 194 c-3 -10 8 -29 31 -53 l36 -37 -35 -34 c-38 -37 -44 -57 -19
-67 10 -3 29 8 53 31 l37 36 34 -35 c37 -38 57 -44 67 -19 3 10 -8 29 -31 53
l-36 37 35 34 c38 37 44 57 19 67 -10 3 -29 -8 -53 -31 l-37 -36 -34 35 c-37
38 -57 44 -67 19z"/>
    </g>
</svg>
