<svg version="1.0" xmlns="http://www.w3.org/2000/svg"
     width="64.000000pt" height="64.000000pt" viewBox="0 0 64.000000 64.000000"
     preserveAspectRatio="xMidYMid meet">

    <g transform="translate(0.000000,64.000000) scale(0.100000,-0.100000)"
       fill="#ffffff" stroke="none">
        <path d="M288 583 c-9 -10 -29 -45 -46 -79 l-31 -61 -76 -10 c-126 -18 -135
-46 -45 -131 l60 -57 -14 -80 c-16 -91 -9 -115 31 -115 14 0 55 16 90 35 l63
36 63 -36 c35 -19 76 -35 90 -35 40 0 47 24 31 115 l-14 80 60 57 c90 85 81
113 -45 131 l-76 10 -31 61 c-36 72 -55 96 -78 96 -9 0 -24 -8 -32 -17z m72
-94 c19 -39 42 -74 50 -79 8 -4 44 -11 80 -15 36 -4 69 -10 74 -12 4 -3 -20
-33 -54 -68 l-61 -62 14 -81 c8 -49 10 -82 4 -82 -5 0 -40 17 -78 38 l-69 37
-69 -37 c-38 -21 -73 -38 -78 -38 -6 0 -4 33 4 82 l14 81 -61 62 c-34 35 -58
65 -54 68 5 2 38 8 74 12 36 4 72 11 80 15 8 5 31 40 50 79 18 39 37 71 40 71
3 0 22 -32 40 -71z"/>
    </g>
</svg>
