<svg xmlns="http://www.w3.org/2000/svg" width="626px" height="626px" viewBox="0 0 626.000000 626.000000"
     preserveAspectRatio="xMidYMid meet">
    <style>
        @media(prefers-color-scheme: dark){
            .fill-black{fill:#ffffff;}
            .fill-white{fill:#000000;}
        }
        @media(prefers-color-scheme: light){
            .fill-black{fill:#000000;}
            .fill-white{fill:#ffffff;}
        }
    </style>
    <g>
        <path class="fill-black" d="M 241.5,32.5 C 262.633,33.4849 281.3,40.6516 297.5,54C 303.647,56.2098 309.647,55.8765 315.5,53C 330.967,39.6207 348.967,32.9541 369.5,33C 373.4,34.5651 377.066,36.5651 380.5,39C 391.927,51.6738 400.427,66.1738 406,82.5C 415.193,107.275 422.193,132.608 427,158.5C 388.907,178.69 348.24,188.69 305,188.5C 273.987,188.204 243.82,183.037 214.5,173C 204.103,168.968 194.103,164.135 184.5,158.5C 189.989,128.79 198.489,99.7899 210,71.5C 215.237,58.18 223.07,46.68 233.5,37C 236.391,35.7258 239.058,34.2258 241.5,32.5 Z"/>
        <path class="fill-black" d="M 368.5,264.5 C 354.991,265.155 341.658,266.155 328.5,267.5C 289.649,268.47 250.983,266.304 212.5,261C 194.906,258.481 177.573,254.815 160.5,250C 148.391,246.278 137.057,240.945 126.5,234C 117.881,227.056 116.381,218.89 122,209.5C 128.424,203.09 135.924,198.257 144.5,195C 154.287,190.627 164.454,187.46 175,185.5C 206.856,204.451 241.356,215.618 278.5,219C 334.82,224.919 387.32,213.752 436,185.5C 452.968,188.93 468.801,195.097 483.5,204C 496.833,214.333 496.833,224.667 483.5,235C 462.335,246.833 439.668,254.5 415.5,258C 399.899,260.742 384.232,262.908 368.5,264.5 Z"/>
        <path class="fill-black" d="M 94.5,246.5 C 108.3,261.91 125.3,272.577 145.5,278.5C 148.445,318.195 162.612,353.195 188,383.5C 218.293,415.562 253.793,440.062 294.5,457C 289.013,469.294 284.013,481.794 279.5,494.5C 259.971,472.796 237.638,454.63 212.5,440C 185.163,427.276 156.829,417.443 127.5,410.5C 133.833,399.167 140.167,387.833 146.5,376.5C 124.216,346.881 101.549,317.548 78.5,288.5C 84.0365,274.554 89.3698,260.554 94.5,246.5 Z"/>
        <path class="fill-black" d="M 514.5,248.5 C 524.803,260.979 534.969,273.645 545,286.5C 545.667,287.5 545.667,288.5 545,289.5C 512.698,318.059 480.532,346.726 448.5,375.5C 464.641,387.14 480.641,398.974 496.5,411C 465.25,418.861 434.583,428.528 404.5,440C 378.897,450.559 357.064,466.393 339,487.5C 314.897,518.674 294.563,552.341 278,588.5C 288.143,513.561 314.476,444.894 357,382.5C 386.998,340.003 425.831,308.336 473.5,287.5C 474.195,283.287 474.861,279.121 475.5,275C 490.611,269.123 503.611,260.29 514.5,248.5 Z"/>
        <path class="fill-black" d="M 193.5,279.5 C 215.509,280.001 237.509,280.834 259.5,282C 267.333,282.916 274.999,284.583 282.5,287C 287.846,289.003 292.513,292.003 296.5,296C 302.833,296.667 309.167,296.667 315.5,296C 318.962,291.767 323.295,288.767 328.5,287C 335.688,284.703 343.022,283.036 350.5,282C 367.493,281.028 384.493,280.195 401.5,279.5C 408.621,279.432 415.621,280.265 422.5,282C 425.95,283.409 427.45,285.909 427,289.5C 394.893,310.27 367.227,335.936 344,366.5C 330.889,360.72 321.889,351.054 317,337.5C 314.331,330.994 312.165,324.327 310.5,317.5C 307.232,316.513 303.898,316.18 300.5,316.5C 291.377,362.412 263.71,380.912 217.5,372C 200.556,364.964 190.056,352.464 186,334.5C 184.117,326.254 182.95,317.921 182.5,309.5C 179.708,309.548 177.875,308.215 177,305.5C 176.333,301.167 176.333,296.833 177,292.5C 178.848,289.959 181.348,288.959 184.5,289.5C 185.378,284.287 188.378,280.954 193.5,279.5 Z"/>
        <path class="fill-white" d="M 204.5,303.5 C 210.358,303.178 216.025,303.511 221.5,304.5C 212.214,306.398 205.047,311.398 200,319.5C 199.333,315.167 199.333,310.833 200,306.5C 201.129,304.859 202.629,303.859 204.5,303.5 Z"/>
        <path class="fill-white" d="M 336.5,303.5 C 342.358,303.178 348.025,303.511 353.5,304.5C 344.538,306.802 337.538,311.802 332.5,319.5C 331.34,315.541 331.173,311.541 332,307.5C 332.748,305.249 334.248,303.916 336.5,303.5 Z"/>
    </g>
</svg>
